<svg xmlns="http://www.w3.org/2000/svg" width="24" height="24" viewBox="0 0 24 24" fill="white"><path d="M16.68 1.8c0 1.14-.93 2.06-2.07 2.06-.02-1.18.95-2.06 2.07-2.06zm2.23 4.37c-1.13-.13-2.09.62-2.64.62-.56 0-1.42-.6-2.34-.58-.6.01-1.16.18-1.65.48-.7.43-1.15 1.09-1.45 1.6-.62 1.07-.5 2.44-.25 3.23.18.54.8 1.87 2.04 1.84.52-.01.9-.15 1.41-.15.5 0 .85.15 1.41.15 1.23-.02 1.8-1.25 1.98-1.79.13-.36.19-.7.19-.72-.01-.02-.37-.14-.38-.56-.01-.36.29-.53.31-.54.14-.1.37-.15.6-.11.25.04.48.19.54.36.07.18.03.44-.1.7-.13.27-.36.6-.7.6-.13 0-.25-.03-.36-.09-.1-.06-.19-.13-.27-.21-.08-.08-.15-.17-.21-.27-.06-.1-.09-.22-.09-.36 0-.34.33-.57.6-.7.26-.13.52-.17.7-.1.17.07.32.29.36.54.04.23-.01.46-.11.6-.01.02-.18.32-.54.31-.42-.01-.54-.37-.56-.38-.02-.01-.36.06-.72.19-.54.18-1.77.75-1.79 1.98 0 .56.15.91.15 1.41 0 .51-.14.89-.15 1.41-.03 1.24 1.3 1.86 1.84 2.04.79.25 2.16.37 3.23-.25.51-.3 1.17-.75 1.6-1.45.3-.49.47-1.05.48-1.65.02-.92-.58-1.78-.58-2.34 0-.55.75-1.51.62-2.64zm-4.91 13.13c-.01.01-.01.01-.02.01-.01 0-.01 0-.02-.01-.01-.01-.01-.01-.01-.02 0-.01 0-.01.01-.02.01-.01.01-.01.02-.01.01 0 .01 0 .02.01.01.01.01.01.01.02 0 .01 0 .01-.01.02zm-2.13-2.13c-.01.01-.01.01-.02.01-.01 0-.01 0-.02-.01-.01-.01-.01-.01-.01-.02 0-.01 0-.01.01-.02.01-.01.01-.01.02-.01.01 0 .01 0 .02.01.01.01.01.01.01.02 0 .01 0 .01-.01.02zm-2.13 2.13c-.01.01-.01.01-.02.01-.01 0-.01 0-.02-.01-.01-.01-.01-.01-.01-.02 0-.01 0-.01.01-.02.01-.01.01-.01.02-.01.01 0 .01 0 .02.01.01.01.01.01.01.02 0 .01 0 .01-.01.02zm-2.13-2.13c-.01.01-.01.01-.02.01-.01 0-.01 0-.02-.01-.01-.01-.01-.01-.01-.02 0-.01 0-.01.01-.02.01-.01.01-.01.02-.01.01 0 .01 0 .02.01.01.01.01.01.01.02 0 .01 0 .01-.01.02z"/></svg> 