<svg xmlns="http://www.w3.org/2000/svg" width="24" height="24" viewBox="0 0 24 24"><path fill="black" d="M16.365 1.43c0 1.14-.93 2.07-2.07 2.07-.06 0-.12 0-.18-.01.01-.13.01-.27.01-.41 0-1.13.92-2.06 2.06-2.06.07 0 .13 0 .19.01-.01.13-.01.26-.01.4zm2.52 4.8c-1.34-1.6-3.37-1.44-4.22-1.44-.84 0-2.08.2-3.07.2-1.32 0-2.65-.28-4.04 1.18-1.54 1.62-1.36 4.67.12 7.28.89 1.55 2.06 3.29 3.54 3.24 1.4-.06 1.93-.89 3.63-.89 1.7 0 2.17.89 3.63.87 1.5-.02 2.44-1.57 3.32-3.12.53-.92.74-1.4 1.16-2.46-3.04-1.16-3.51-5.44.46-6.86zm-2.36-3.63c.01.09.01.19.01.28 0 1.29-1.04 2.33-2.33 2.33-.08 0-.16 0-.24-.01-.01-.09-.01-.18-.01-.28 0-1.29 1.04-2.33 2.33-2.33.08 0 .16.01.24.01zm-3.51 20.32c-1.03 0-2.06-.3-2.95-.87-.91-.58-1.68-1.38-2.28-2.33-.6-.95-.93-2.01-.93-3.09 0-1.1.34-2.18.95-3.11.6-.92 1.35-1.7 2.23-2.25.88-.55 1.89-.85 2.93-.85s2.05.3 2.93.85c.88.55 1.63 1.33 2.23 2.25.61.93.95 2.01.95 3.11 0 1.08-.33 2.14-.93 3.09-.6.95-1.37 1.75-2.28 2.33-.89.57-1.92.87-2.95.87z"/></svg>
