<svg xmlns="http://www.w3.org/2000/svg" width="24" height="24" viewBox="0 0 48 48"><g><path fill="#4285F4" d="M43.611 20.083H42V20H24v8h11.303C34.418 32.438 29.692 36 24 36c-6.627 0-12-5.373-12-12s5.373-12 12-12c2.803 0 5.378.99 7.426 2.624l6.213-6.213C34.346 6.162 29.396 4 24 4 12.954 4 4 12.954 4 24s8.954 20 20 20c11.046 0 20-8.954 20-20 0-1.341-.138-2.651-.389-3.917z"/><path fill="#34A853" d="M6.306 14.691l6.571 4.819C14.655 16.077 19.008 13 24 13c2.803 0 5.378.99 7.426 2.624l6.213-6.213C34.346 6.162 29.396 4 24 4 16.318 4 9.434 8.99 6.306 14.691z"/><path fill="#FBBC05" d="M24 44c5.522 0 10.522-1.885 14.426-5.124l-6.667-5.455C29.688 34.883 26.94 36 24 36c-5.67 0-10.383-3.544-12.28-8.438l-6.526 5.032C9.399 39.013 16.137 44 24 44z"/><path fill="#EA4335" d="M43.611 20.083H42V20H24v8h11.303C34.93 32.438 29.692 36 24 36c-5.67 0-10.383-3.544-12.28-8.438l-6.526 5.032C9.399 39.013 16.137 44 24 44c5.396 0 10.346-2.162 13.639-5.623l-6.667-5.455C29.688 34.883 26.94 36 24 36c-5.67 0-10.383-3.544-12.28-8.438l-6.526 5.032C9.399 39.013 16.137 44 24 44z"/></g></svg>
